# xmcd
# 
# Track frame offsets:
#     150
#     19272
#     37572
#     55307
#     71042
#     90907
#     110247
#     129522
#     148755
#     168732
# 
# Disc length: 2550
# 
# Revision: 1
# Processed by: cddbd v1.5.2PL0 Copyright (c) Steve Scherf et al.
# Submitted via: fre:ac v1.0.27
# 
DISCID=8909f40a
DTITLE=南台灣小姑娘 - 愛情先天免疫
DYEAR=1996
DGENRE=POP
TTITLE0=愛情先天免疫
TTITLE1=相思豆
TTITLE2=南台灣小姑娘
TTITLE3=約會
TTITLE4=情人變朋友
TTITLE5=愛情莎喲哪啦
TTITLE6=放你自由去
TTITLE7=苦酒落喉
TTITLE8=姊妹
TTITLE9=風吹風吹
EXTD=
EXTT0=
EXTT1=
EXTT2=
EXTT3=
EXTT4=
EXTT5=
EXTT6=
EXTT7=
EXTT8=
EXTT9=
PLAYORDER=
